<svg version="1.1" id="Layer_1" xmlns="http://www.w3.org/2000/svg" xmlns:xlink="http://www.w3.org/1999/xlink" x="0px" y="0px"
	 width="100%" viewBox="0 0 512 512" enable-background="new 0 0 512 512" xml:space="preserve">
<path fill="#000000" opacity="1.000000" stroke="none" 
	d="
M243.256195,371.150269 
	C224.503693,367.014618 208.322845,358.542053 194.849503,345.664551 
	C186.072876,337.276093 176.765656,335.104553 165.264648,337.834778 
	C155.487244,340.155762 147.369003,334.489349 146.008011,325.312378 
	C145.456406,321.593079 146.658203,318.043793 147.927414,314.623993 
	C154.297821,297.459320 160.231918,280.177155 163.073425,261.998596 
	C165.522995,246.327377 165.725632,230.542496 165.689438,214.727386 
	C165.658203,201.071564 168.537659,187.993454 174.465454,175.644165 
	C186.728592,150.096512 207.175995,134.389587 234.581924,129.136932 
	C262.862610,123.716606 289.235840,129.439499 311.860046,148.325302 
	C327.862793,161.683746 337.040070,179.070709 341.136719,199.282776 
	C342.435211,205.689346 339.129639,209.336777 333.652191,208.124039 
	C329.851715,207.282608 329.452240,204.125412 328.927704,201.243851 
	C326.411591,187.420807 320.397491,175.282059 310.818909,165.130997 
	C290.017944,143.086899 264.332581,134.884277 234.984863,141.769287 
	C207.386551,148.243881 189.230042,165.883347 181.073990,193.364243 
	C178.348221,202.548431 177.108749,212.105438 177.555450,221.451752 
	C179.161682,255.059006 172.111465,286.876099 159.706757,317.806702 
	C157.067825,324.386780 158.162888,325.827454 165.312119,325.657806 
	C168.120529,325.591156 170.927628,325.135712 173.718948,324.741455 
	C183.521973,323.356812 191.659225,326.903931 198.982498,333.065796 
	C205.101624,338.214447 211.180450,343.440155 217.999069,347.663635 
	C242.638794,362.925659 268.612976,364.378815 295.586243,354.969238 
	C296.821442,354.538361 297.973907,353.870331 299.099243,352.220093 
	C293.786835,352.220093 288.473450,352.282379 283.162292,352.200562 
	C278.838531,352.133942 274.462982,352.270172 270.206757,351.652374 
	C261.870514,350.442413 257.390961,345.255646 257.769928,336.934326 
	C258.192871,327.647736 259.181152,318.384766 260.013184,309.119537 
	C261.186401,296.055206 262.427002,282.996826 263.667877,269.938660 
	C264.531433,260.851257 265.073486,251.712296 266.441284,242.699890 
	C267.738831,234.150314 272.867676,230.041794 281.505310,229.749146 
	C287.664581,229.540466 293.838837,229.566071 300.000458,229.722168 
	C303.008209,229.798370 304.894226,228.984131 306.240509,226.041977 
	C309.259583,219.444122 314.755157,216.582642 321.928497,216.640228 
	C329.093903,216.697754 336.260712,216.708557 343.425659,216.628113 
	C346.437347,216.594299 349.196930,217.014832 350.636292,219.993362 
	C352.196259,223.221497 351.133331,226.134109 349.073395,228.807983 
	C346.311798,232.392639 342.215942,233.989700 338.407104,236.020966 
	C334.484467,238.112915 330.618958,238.786682 326.700226,235.929031 
	C325.568756,235.103928 324.384491,235.525360 323.806366,236.801163 
	C323.105652,238.347534 324.259277,239.284988 325.239594,240.180313 
	C330.041443,244.565826 339.273254,243.331604 344.026215,237.719238 
	C345.840698,235.576691 346.935059,232.612823 349.682281,231.509338 
	C356.962524,228.585052 364.339874,228.394638 371.298004,232.348770 
	C375.420502,234.691498 377.148682,238.947342 376.761505,243.455139 
	C375.596649,257.016785 374.021667,270.542938 372.643158,284.086639 
	C371.517273,295.148071 370.455933,306.216095 369.342834,317.278870 
	C368.611572,324.546875 368.196289,331.870392 366.995209,339.061432 
	C365.476624,348.153259 359.257111,352.881378 349.122345,353.142029 
	C342.128387,353.321899 335.125122,353.141754 328.126038,353.121704 
	C326.119781,353.115936 324.191010,353.179962 322.410156,354.435272 
	C298.563843,371.244598 272.238068,376.513428 243.256195,371.150269 
M277.327972,258.459290 
	C277.015961,260.761261 276.613861,263.055084 276.405914,265.366425 
	C274.398163,287.683350 272.415070,310.002472 270.446259,332.322845 
	C270.096313,336.290527 271.432251,338.768616 275.957153,338.685181 
	C280.950684,338.593170 285.957764,338.555603 290.942871,338.809570 
	C309.743164,339.767303 328.556396,339.715302 347.369598,339.719238 
	C353.410126,339.720520 354.732422,338.632172 355.509644,332.792786 
	C356.034363,328.850586 356.274536,324.870544 356.646790,320.907898 
	C358.400848,302.235901 360.104736,283.558929 361.941071,264.895020 
	C362.544220,258.765167 361.527405,257.335510 355.499542,257.306549 
	C345.340881,257.257782 335.181152,257.356079 325.023254,257.254028 
	C318.039948,257.183868 310.922791,255.475357 307.941437,248.956070 
	C304.766571,242.013641 299.989655,241.748276 293.980042,242.169159 
	C290.499207,242.412918 286.988525,242.257812 283.491577,242.235641 
	C280.483154,242.216553 278.793488,243.748138 278.433960,246.639404 
	C277.983521,250.261688 277.698334,253.904495 277.327972,258.459290 
z"/>
<path fill="#000000" opacity="1.000000" stroke="none" 
	d="
M221.380951,212.536163 
	C216.444107,215.854599 211.691925,215.978119 207.126205,212.847000 
	C203.251373,210.189667 201.665970,206.259140 202.320663,201.602417 
	C203.057907,196.358627 206.708405,192.557404 211.498489,191.769485 
	C217.070572,190.852905 221.837463,192.926804 224.288406,197.333908 
	C226.973923,202.162811 226.050919,207.448120 221.380951,212.536163 
z"/>
<path fill="#000000" opacity="1.000000" stroke="none" 
	d="
M268.381042,214.794922 
	C261.362152,216.243301 254.199341,211.525711 254.034851,203.079254 
	C253.893677,195.830322 260.175995,190.845612 267.890137,191.715988 
	C272.891449,192.280273 276.716339,196.050888 277.380249,201.071518 
	C278.308136,208.088364 275.719849,212.178360 268.381042,214.794922 
z"/>
<path fill="#000000" opacity="1.000000" stroke="none" 
	d="
M323.999695,281.303375 
	C315.514526,281.297699 307.529114,281.320282 299.544281,281.262421 
	C297.898956,281.250488 296.180450,281.184906 294.628418,280.710144 
	C291.957458,279.893188 290.423126,277.952240 290.848328,275.048309 
	C291.229462,272.445465 292.889282,270.763428 295.567200,270.750916 
	C311.203674,270.677795 326.840912,270.649811 342.477081,270.742920 
	C345.600586,270.761536 347.280518,272.689789 347.310425,275.909607 
	C347.343994,279.522491 345.119781,281.066498 341.964142,281.178345 
	C336.148468,281.384491 330.321777,281.278839 323.999695,281.303375 
z"/>
<path fill="#000000" opacity="1.000000" stroke="none" 
	d="
M307.007172,290.812836 
	C316.335022,290.813507 325.164368,290.795624 333.993530,290.830292 
	C335.650085,290.836792 337.357788,290.837616 338.950439,291.220917 
	C341.676361,291.876923 343.369812,293.738647 343.138336,296.622894 
	C342.911316,299.451477 341.180328,301.284973 338.238403,301.298187 
	C323.412842,301.364868 308.586670,301.375275 293.761108,301.314178 
	C290.609497,301.301208 288.890533,299.469391 288.714325,296.290588 
	C288.526855,292.907959 290.595276,291.294067 293.530182,291.072021 
	C297.838226,290.746094 302.180756,290.876495 307.007172,290.812836 
z"/>
<path fill="#000000" opacity="1.000000" stroke="none" 
	d="
M289.181763,312.908813 
	C298.757446,310.754211 308.036530,311.813568 317.272430,312.112335 
	C320.137299,312.205048 322.268066,314.268494 322.100830,317.436157 
	C321.922089,320.820923 319.704071,322.369354 316.410126,322.376129 
	C308.446808,322.392517 300.483429,322.375793 292.520081,322.372101 
	C290.161438,322.371002 288.277344,321.457947 287.273285,319.273834 
	C286.171631,316.877502 286.624969,314.750366 289.181763,312.908813 
z"/>
</svg>